<?xml version="1.0" encoding="UTF-8"?> <svg xmlns="http://www.w3.org/2000/svg" id="Layer_2" viewBox="0 0 94.4 122.73"> <defs> <style>.cls-1{fill:#f91223;}</style> </defs> <g id="Layer_1-2"> <g> <path class="cls-1" d="m20.19,48.61c2.48,0,4.44-.73,5.89-2.18,1.45-1.45,2.18-3.39,2.18-5.81V11.3H8.88V0h31.49v40.62c0,2.85-.47,5.42-1.41,7.71-.94,2.29-2.29,4.23-4.04,5.81-1.75,1.59-3.86,2.81-6.34,3.67-2.48.86-5.28,1.29-8.4,1.29s-5.75-.42-8.2-1.25c-2.45-.83-4.55-2.02-6.3-3.55-1.75-1.53-3.11-3.4-4.08-5.61-.97-2.21-1.51-4.68-1.61-7.43h12.11c.11,2.21.89,3.98,2.34,5.33,1.45,1.35,3.36,2.02,5.73,2.02Z"></path> <path class="cls-1" d="m47.57,58.22L63.07.08h16.15l15.18,58.14h-12.27l-3.07-13.32h-16.23l-3.07,13.32h-12.19Zm29.23-22.77l-4.44-19.14c-.16-.81-.32-1.68-.48-2.62-.16-.94-.3-1.84-.4-2.71-.11-.91-.22-1.86-.32-2.83h-.48c-.11.97-.24,1.91-.4,2.83-.11.86-.23,1.76-.36,2.71-.13.94-.31,1.82-.52,2.62l-4.36,19.14h11.79Z"></path> <path class="cls-1" d="m22.61,122.73c-3.01,0-5.76-.39-8.24-1.17-2.48-.78-4.6-1.88-6.38-3.31-1.78-1.43-3.18-3.16-4.2-5.21-1.02-2.04-1.62-4.33-1.78-6.86h12.11c.43,4.04,3.34,6.06,8.72,6.06,2.69,0,4.74-.58,6.14-1.74,1.4-1.16,2.1-2.71,2.1-4.64,0-1.72-.55-3.2-1.66-4.44-1.1-1.24-2.62-2.07-4.56-2.5l-6.14-1.37c-5.28-1.18-9.27-3.3-11.99-6.34-2.72-3.04-4.08-6.93-4.08-11.67,0-2.48.47-4.74,1.41-6.78.94-2.04,2.27-3.79,4-5.25,1.72-1.45,3.81-2.58,6.26-3.39,2.45-.81,5.21-1.21,8.28-1.21,5.76,0,10.38,1.43,13.85,4.28,3.47,2.85,5.4,6.81,5.77,11.87h-12.11c-.22-1.78-1.01-3.16-2.38-4.16-1.37-1-3.19-1.49-5.45-1.49s-4.21.57-5.53,1.7c-1.32,1.13-1.98,2.56-1.98,4.28,0,1.51.51,2.81,1.53,3.92,1.02,1.1,2.5,1.87,4.44,2.3l6.46,1.45c5.22,1.18,9.19,3.32,11.91,6.42,2.72,3.1,4.08,7.04,4.08,11.83,0,2.58-.48,4.94-1.45,7.07-.97,2.13-2.36,3.96-4.16,5.49-1.8,1.53-3.97,2.73-6.5,3.59s-5.36,1.29-8.48,1.29Z"></path> <path class="cls-1" d="m71.16,122.73c-3.01,0-5.76-.39-8.24-1.17-2.48-.78-4.6-1.88-6.38-3.31-1.78-1.43-3.18-3.16-4.2-5.21-1.02-2.04-1.62-4.33-1.78-6.86h12.11c.43,4.04,3.34,6.06,8.72,6.06,2.69,0,4.74-.58,6.14-1.74,1.4-1.16,2.1-2.71,2.1-4.64,0-1.72-.55-3.2-1.66-4.44-1.1-1.24-2.62-2.07-4.56-2.5l-6.14-1.37c-5.28-1.18-9.27-3.3-11.99-6.34-2.72-3.04-4.08-6.93-4.08-11.67,0-2.48.47-4.74,1.41-6.78.94-2.04,2.27-3.79,4-5.25,1.72-1.45,3.81-2.58,6.26-3.39,2.45-.81,5.21-1.21,8.28-1.21,5.76,0,10.38,1.43,13.85,4.28,3.47,2.85,5.4,6.81,5.77,11.87h-12.11c-.22-1.78-1.01-3.16-2.38-4.16-1.37-1-3.19-1.49-5.45-1.49s-4.21.57-5.53,1.7c-1.32,1.13-1.98,2.56-1.98,4.28,0,1.51.51,2.81,1.53,3.92,1.02,1.1,2.5,1.87,4.44,2.3l6.46,1.45c5.22,1.18,9.19,3.32,11.91,6.42,2.72,3.1,4.08,7.04,4.08,11.83,0,2.58-.48,4.94-1.45,7.07-.97,2.13-2.36,3.96-4.16,5.49-1.8,1.53-3.97,2.73-6.5,3.59s-5.36,1.29-8.48,1.29Z"></path> </g> </g> </svg> 