<?xml version="1.0" encoding="UTF-8"?> <svg xmlns="http://www.w3.org/2000/svg" id="Layer_1" data-name="Layer 1" viewBox="0 0 1016.91 165.29"> <defs> <style>.cls-1{fill:#19191c;}.cls-2{fill:#fff;}</style> </defs> <polygon class="cls-1" points="150.63 87.04 193.5 87.04 193.5 165.29 227.87 165.29 227.87 87.04 270.79 87.04 270.79 54.52 150.63 54.52 150.63 87.04"></polygon> <polygon class="cls-1" points="284.03 54.52 284 54.52 284 165.29 284.03 165.29 318.37 165.29 397.45 165.29 397.45 133.06 318.37 133.06 318.37 126.17 357.02 126.17 357.02 93.93 318.37 93.93 318.37 87.04 397.45 87.04 397.45 54.52 284.03 54.52 284.03 54.52"></polygon> <path class="cls-1" d="M500.66,60H441.55C427.41,60,415.94,71.86,415.94,86v59.11a25.62,25.62,0,0,0,25.61,25.62h59.11a25.62,25.62,0,0,0,25.62-25.62v-26H492.6v17.89h-43v-43h43V112h33.68V86C526.28,71.86,514.81,60,500.66,60Z" transform="translate(-5.24 -5.43)"></path> <polygon class="cls-1" points="803.84 54.52 762.81 165.29 807.11 165.29 807.11 133.35 849.24 133.35 849.24 165.29 893.54 165.29 852.5 54.52 803.84 54.52"></polygon> <path class="cls-1" d="M996.38,119H985v18.18H940.94V93.32H985V111.5h11.37a25.78,25.78,0,1,0-.2-51.55H906.11V170.73l90.28,0a25.77,25.77,0,0,0,25.76-25.78v-.2A25.77,25.77,0,0,0,996.38,119Z" transform="translate(-5.24 -5.43)"></path> <polygon class="cls-1" points="693.52 54.52 659.15 54.52 659.15 165.29 659.31 165.29 693.52 165.29 755.57 165.29 755.57 133.38 693.52 133.38 693.52 54.52"></polygon> <polygon class="cls-1" points="611.47 93.93 568.47 93.93 568.47 54.52 534.1 54.52 534.1 165.29 568.47 165.29 568.47 126.17 611.47 126.17 611.47 165.29 645.84 165.29 645.84 54.52 611.47 54.52 611.47 93.93"></polygon> <path class="cls-1" d="M90.4,170.7H30.86A25.62,25.62,0,0,1,5.24,145.09V85.55A25.62,25.62,0,0,1,30.86,59.93H90.4A25.62,25.62,0,0,1,116,85.55v59.54A25.62,25.62,0,0,1,90.4,170.7Z" transform="translate(-5.24 -5.43)"></path> <path class="cls-1" d="M156.36,33.08V29.17h5.79a2.77,2.77,0,0,0,3-3V5.43h4.27V26.65a6.75,6.75,0,0,1-.82,3.39,5.5,5.5,0,0,1-2.33,2.25,7.44,7.44,0,0,1-3.51.79Z" transform="translate(-5.24 -5.43)"></path> <path class="cls-1" d="M193.43,23.92H178a7,7,0,0,0,1.76,4.57,5.51,5.51,0,0,0,4.2,1.67,6,6,0,0,0,3.11-.76,3.88,3.88,0,0,0,1.79-2H193a6.49,6.49,0,0,1-1.63,3.21,8.82,8.82,0,0,1-3.26,2.2,11.53,11.53,0,0,1-4.29.79,10,10,0,0,1-5.18-1.35,9.28,9.28,0,0,1-3.54-3.75A11.52,11.52,0,0,1,173.8,23a11.58,11.58,0,0,1,1.28-5.49,9.28,9.28,0,0,1,3.54-3.75,10,10,0,0,1,5.18-1.34,9.66,9.66,0,0,1,5.1,1.32,8.74,8.74,0,0,1,3.36,3.68,12.07,12.07,0,0,1,1.17,5.42ZM180,17.1a6.53,6.53,0,0,0-1.86,3.9h11a6.52,6.52,0,0,0-1.62-4,5,5,0,0,0-3.73-1.34A5.32,5.32,0,0,0,180,17.1Z" transform="translate(-5.24 -5.43)"></path> <path class="cls-1" d="M203.94,33.08a5.24,5.24,0,0,1-3.75-1.29,4.64,4.64,0,0,1-1.36-3.55l0-11.85h-3.64l0-3.53h2.29a1.61,1.61,0,0,0,1.21-.39,1.63,1.63,0,0,0,.37-1.19V7.8H203v5.06h4.74l0,3.53h-4.74l0,11.48a1.65,1.65,0,0,0,.45,1.22,1.61,1.61,0,0,0,1.23.46h3v3.53Z" transform="translate(-5.24 -5.43)"></path> <path class="cls-1" d="M231.46,21.14a6.55,6.55,0,0,1,1.41,4.24,7.21,7.21,0,0,1-1.14,4,7.56,7.56,0,0,1-3.23,2.73,11.35,11.35,0,0,1-4.79,1H212.08V5.43h11.39a10.57,10.57,0,0,1,4.55.94A7.38,7.38,0,0,1,231.08,9a6.76,6.76,0,0,1,1.08,3.77,5.91,5.91,0,0,1-4.58,6A7,7,0,0,1,231.46,21.14ZM216.23,8.93v8.41h6.91a4.76,4.76,0,0,0,3.35-1.14,4,4,0,0,0,1.23-3.1,4,4,0,0,0-1.23-3,4.79,4.79,0,0,0-3.35-1.12Zm7.14,20.66A5.36,5.36,0,0,0,227,28.4a4.06,4.06,0,0,0,1.35-3.22,4.34,4.34,0,0,0-.61-2.32A4,4,0,0,0,226,21.33a6.28,6.28,0,0,0-2.66-.53h-7.14v8.79Z" transform="translate(-5.24 -5.43)"></path> <path class="cls-1" d="M248.3,12.7v4.09h-1.07a5.36,5.36,0,0,0-4,1.49,5.72,5.72,0,0,0-1.46,4.16V33.08h-4.13V12.86h4.11v3.46a6.66,6.66,0,0,1,2.41-2.69,6.47,6.47,0,0,1,3.48-.93Z" transform="translate(-5.24 -5.43)"></path> <path class="cls-1" d="M263.63,13.25a6.89,6.89,0,0,1,2.86,2.43,6.42,6.42,0,0,1,1,3.58V33.08h-4v-3a7.25,7.25,0,0,1-2.76,2.54,8.76,8.76,0,0,1-7.37.17A5.64,5.64,0,0,1,251,30.77a5.51,5.51,0,0,1-.84-3,5.64,5.64,0,0,1,.8-3,6.12,6.12,0,0,1,2.24-2.19,7.81,7.81,0,0,1,3.28-1L262.1,21a1.36,1.36,0,0,0,1-.53,2,2,0,0,0,.37-1.27,3.14,3.14,0,0,0-.54-1.79,3.54,3.54,0,0,0-1.49-1.25,5.12,5.12,0,0,0-2.2-.46,5.24,5.24,0,0,0-2.16.44,4.15,4.15,0,0,0-1.6,1.21,3.52,3.52,0,0,0-.76,1.77h-4a6.76,6.76,0,0,1,1.4-3.5,8,8,0,0,1,3.09-2.37,10.45,10.45,0,0,1,4.26-.84A10,10,0,0,1,263.63,13.25ZM261,29.77a4.68,4.68,0,0,0,1.84-1.9,6.06,6.06,0,0,0,.65-2.86V23.47l-6.11.65a3.52,3.52,0,0,0-2.21,1,3,3,0,0,0-.81,2.14,2.9,2.9,0,0,0,1,2.35,4.35,4.35,0,0,0,2.84.85A5.59,5.59,0,0,0,261,29.77Z" transform="translate(-5.24 -5.43)"></path> <path class="cls-1" d="M272.41,9.58V5.43h4.13V9.58Zm4.13,23.5h-4.13V12.86h4.13Z" transform="translate(-5.24 -5.43)"></path> <path class="cls-1" d="M296,13.37a6.63,6.63,0,0,1,2.55,2.79,9.18,9.18,0,0,1,.9,4.17V33.08h-4.15V20.74a5.06,5.06,0,0,0-1.15-3.55,4.2,4.2,0,0,0-3.23-1.25,5,5,0,0,0-2.67.7,4.7,4.7,0,0,0-1.77,2,7.11,7.11,0,0,0-.62,3.06V33.08h-4.13V12.86h4V16.1a7.13,7.13,0,0,1,2.64-2.75,7.45,7.45,0,0,1,3.82-1A7.31,7.31,0,0,1,296,13.37Z" transform="translate(-5.24 -5.43)"></path> <path class="cls-1" d="M307.41,32.76a7,7,0,0,1-3.06-2.25,5.49,5.49,0,0,1-1.09-3.35h4.37a2.67,2.67,0,0,0,.55,1.66A3.67,3.67,0,0,0,309.71,30a6.26,6.26,0,0,0,4.43,0,3.36,3.36,0,0,0,1.45-1.08,2.68,2.68,0,0,0,.51-1.61,2.29,2.29,0,0,0-.69-1.71,3.46,3.46,0,0,0-1.92-.9l-3.87-.57a7.1,7.1,0,0,1-4.16-1.95,5.23,5.23,0,0,1-1.53-3.82,5.28,5.28,0,0,1,1-3.13,6.23,6.23,0,0,1,2.74-2.09,10.42,10.42,0,0,1,4.1-.74,11,11,0,0,1,4.23.76,6.53,6.53,0,0,1,2.87,2.14,5.23,5.23,0,0,1,1,3.16h-4.26a2.43,2.43,0,0,0-.5-1.49,3.16,3.16,0,0,0-1.39-1,5.53,5.53,0,0,0-2.06-.36,4.43,4.43,0,0,0-2.68.73,2.31,2.31,0,0,0-1,1.95,2,2,0,0,0,.67,1.54,3.36,3.36,0,0,0,1.8.83l3.85.57a7.41,7.41,0,0,1,4.33,2,5.46,5.46,0,0,1,1.54,4,5.66,5.66,0,0,1-1,3.36,6.59,6.59,0,0,1-2.86,2.23,11,11,0,0,1-4.3.79A12.17,12.17,0,0,1,307.41,32.76Z" transform="translate(-5.24 -5.43)"></path> <path class="cls-2" d="M95.93,111.7H74.55a10.3,10.3,0,0,1-10.3-10.3V80H57V101.4a10.3,10.3,0,0,1-10.3,10.3H25.33v7.24H46.71A10.3,10.3,0,0,1,57,129.23v21.38h7.24V129.23a10.3,10.3,0,0,1,10.3-10.29H95.93Z" transform="translate(-5.24 -5.43)"></path> </svg> 